<svg width="21" height="22" viewBox="0 0 21 22" fill="none" xmlns="http://www.w3.org/2000/svg">
<path d="M15.7119 11.9587L15.7119 20.656" stroke="white" stroke-width="1.5" stroke-linecap="round"/>
<path fill-rule="evenodd" clip-rule="evenodd" d="M11.7312 13.3074C10.9073 13.1349 10.0527 13.0459 9.18842 13.0459C7.03454 13.0459 4.94084 13.5987 3.23204 14.6185C1.89809 15.4146 0.85689 16.4606 0.199087 17.651C-0.0922132 18.1781 0.258923 18.795 0.848537 18.9179L1.02756 18.9552C4.87561 19.7572 8.81233 19.9858 12.7109 19.6412V19.3074H11.3623C9.70545 19.3074 8.36231 17.9642 8.36231 16.3074C8.36231 14.6505 9.70545 13.3074 11.3623 13.3074L11.7312 13.3074Z" fill="white"/>
<path d="M20.0596 16.3074L11.3623 16.3074" stroke="white" stroke-width="1.5" stroke-linecap="round"/>
<circle cx="9.18774" cy="5.43579" r="5.43579" fill="white"/>
</svg>
