<svg width="13" height="15" viewBox="0 0 13 15" fill="none" xmlns="http://www.w3.org/2000/svg">
<path d="M7.92957 14.3562H2.85343C1.68104 14.3562 0.727295 13.3813 0.727295 12.1829V4.82087C0.727295 3.62248 1.68104 2.64757 2.85343 2.64757H7.92957C9.10196 2.64757 10.0557 3.62248 10.0557 4.82087V12.1829C10.0557 13.3813 9.10196 14.3562 7.92957 14.3562ZM2.85343 3.73422C2.26729 3.73422 1.79036 4.22173 1.79036 4.82087V12.1829C1.79036 12.782 2.26729 13.2696 2.85343 13.2696H7.92957C8.51571 13.2696 8.99264 12.782 8.99264 12.1829V4.82087C8.99264 4.22173 8.51571 3.73422 7.92957 3.73422H2.85343ZM12.1818 10.8246V2.62041C12.1818 1.42202 11.2281 0.447113 10.0557 0.447113H4.15569C3.8621 0.447113 3.62415 0.690335 3.62415 0.990437C3.62415 1.29054 3.8621 1.53376 4.15569 1.53376H10.0557C10.6418 1.53376 11.1188 2.02127 11.1188 2.62041V10.8246C11.1188 11.1247 11.3567 11.3679 11.6503 11.3679C11.9439 11.3679 12.1818 11.1247 12.1818 10.8246Z" fill="#25213B"/>
</svg>
