<svg width="30" height="32" viewBox="0 0 30 32" fill="none" xmlns="http://www.w3.org/2000/svg">
<path d="M10.7061 4.14783H26.635C26.7852 4.14783 26.9293 4.0854 27.0355 3.97427C27.1417 3.86315 27.2014 3.71244 27.2014 3.55528C27.2014 3.39813 27.1417 3.24741 27.0355 3.13629C26.9293 3.02517 26.7852 2.96274 26.635 2.96274H10.7061C10.5559 2.96274 10.4118 3.02517 10.3056 3.13629C10.1993 3.24741 10.1396 3.39813 10.1396 3.55528C10.1396 3.71244 10.1993 3.86315 10.3056 3.97427C10.4118 4.0854 10.5559 4.14783 10.7061 4.14783Z" fill="black"/>
<path d="M4.0219 4.14783H6.6956C6.84583 4.14783 6.98991 4.0854 7.09615 3.97427C7.20238 3.86315 7.26206 3.71244 7.26206 3.55528C7.26206 3.39813 7.20238 3.24741 7.09615 3.13629C6.98991 3.02517 6.84583 2.96274 6.6956 2.96274H4.0219C3.87167 2.96274 3.72759 3.02517 3.62136 3.13629C3.51512 3.24741 3.45544 3.39813 3.45544 3.55528C3.45544 3.71244 3.51512 3.86315 3.62136 3.97427C3.72759 4.0854 3.87167 4.14783 4.0219 4.14783Z" fill="black"/>
<path d="M14.5864 13.0774C13.6359 13.079 12.7247 13.4747 12.0526 14.1777C11.3805 14.8808 11.0022 15.8339 11.0007 16.8282C11.0041 17.231 11.0671 17.6308 11.1877 18.0133C11.2357 18.1626 11.3385 18.2858 11.4735 18.3558C11.6084 18.4258 11.7643 18.4369 11.9071 18.3866C12.0498 18.3363 12.1676 18.2288 12.2345 18.0877C12.3014 17.9465 12.312 17.7834 12.2639 17.6341C12.1386 17.2484 12.1031 16.837 12.1604 16.4341C12.2177 16.0311 12.366 15.6483 12.5932 15.3174C12.8203 14.9865 13.1196 14.7171 13.4663 14.5316C13.813 14.346 14.197 14.2497 14.5864 14.2507C15.0476 14.2478 15.4998 14.3835 15.8893 14.6417C16.0177 14.7258 16.1729 14.7531 16.3205 14.7175C16.4682 14.6819 16.5963 14.5865 16.6767 14.4521C16.757 14.3178 16.7831 14.1555 16.7491 14.001C16.7151 13.8466 16.6238 13.7126 16.4954 13.6285C15.9207 13.2622 15.2594 13.0713 14.5864 13.0774Z" fill="black"/>
<path d="M14.5863 10.6658C13.2198 10.6626 11.895 11.1579 10.84 12.0664C9.78492 12.9749 9.06569 14.2397 8.80608 15.6431C8.54648 17.0465 8.76274 18.5007 9.41765 19.7553C10.0725 21.0099 11.1251 21.9864 12.3941 22.5167C12.4608 22.5443 12.532 22.5584 12.6037 22.5582C12.7362 22.5599 12.865 22.5131 12.9679 22.4257C13.0707 22.3384 13.1411 22.2161 13.1667 22.0801C13.1923 21.9442 13.1715 21.8031 13.108 21.6815C13.0444 21.5599 12.9422 21.4655 12.819 21.4146C12.0809 21.1032 11.4298 20.6023 10.9257 19.9582C10.4216 19.314 10.0809 18.5474 9.93491 17.7291C9.78894 16.9107 9.84247 16.0671 10.0906 15.2762C10.3386 14.4852 10.7733 13.7724 11.3543 13.2036C11.9354 12.6348 12.6441 12.2283 13.415 12.0217C14.1859 11.8151 14.9941 11.8151 15.765 12.0216C16.5359 12.2281 17.2447 12.6345 17.8258 13.2033C18.4068 13.7721 18.8415 14.4849 19.0897 15.2758C19.1363 15.425 19.2377 15.5488 19.3715 15.6199C19.5054 15.691 19.6607 15.7036 19.8034 15.655C19.8747 15.6309 19.9407 15.5922 19.9976 15.5412C20.0545 15.4902 20.1011 15.4279 20.1349 15.3579C20.1686 15.2879 20.1887 15.2116 20.194 15.1335C20.1994 15.0553 20.1898 14.9768 20.166 14.9025C19.7815 13.6713 19.0349 12.5987 18.0328 11.8378C17.0308 11.0769 15.8245 10.6667 14.5863 10.6658Z" fill="black"/>
<path d="M14.5863 8.29562C12.5491 8.29955 10.5871 9.10129 9.08687 10.5429C7.58659 11.9846 6.65676 13.9617 6.48053 16.0847C6.30429 18.2077 6.89442 20.3228 8.13468 22.0134C9.37494 23.704 11.1754 24.8475 13.1815 25.2187H13.3005C13.4507 25.2321 13.5998 25.1824 13.7151 25.0808C13.8304 24.9791 13.9023 24.8337 13.9151 24.6765C13.9278 24.5194 13.8804 24.3633 13.7832 24.2428C13.686 24.1222 13.547 24.047 13.3968 24.0336C12.1163 23.8041 10.9218 23.2074 9.9464 22.3099C8.97096 21.4123 8.2528 20.2492 7.8719 18.95C7.491 17.6508 7.4623 16.2665 7.78899 14.9512C8.11568 13.6359 8.78495 12.4413 9.72228 11.5004C10.6596 10.5594 11.8282 9.90909 13.0979 9.62176C14.3677 9.33443 15.6888 9.42139 16.9141 9.87295C18.1394 10.3245 19.2208 11.123 20.038 12.1794C20.8551 13.2358 21.376 14.5088 21.5425 15.8565C21.5622 16.012 21.6401 16.1529 21.759 16.2484C21.8779 16.344 22.0282 16.3863 22.1769 16.3661C22.3255 16.3454 22.4603 16.264 22.5516 16.1396C22.6429 16.0152 22.6833 15.858 22.664 15.7024C22.4011 13.655 21.4379 11.7765 19.9528 10.4147C18.4677 9.05298 16.5612 8.30015 14.5863 8.29562Z" fill="black"/>
<path d="M29.9997 24.8869V2.80866C29.9997 2.06478 29.7176 1.35129 29.2153 0.82473C28.713 0.298174 28.0315 0.00156936 27.3204 0H2.67936C1.96823 0.00156936 1.28674 0.298174 0.784421 0.82473C0.282106 1.35129 -1.58257e-06 2.06478 0 2.80866V24.8869C-1.58257e-06 25.6307 0.282106 26.3442 0.784421 26.8708C1.28674 27.3974 1.96823 27.694 2.67936 27.6955H15.8949L16.1328 28.6673C16.2177 29.0134 16.3896 29.3294 16.6307 29.5826C16.8717 29.8358 17.1731 30.0169 17.5036 30.1072C17.8332 30.2015 18.1808 30.2029 18.5111 30.1113C18.8413 30.0198 19.1426 29.8384 19.3843 29.5857L20.942 27.9503L23.9669 31.1204C24.3657 31.5382 24.8736 31.8234 25.4267 31.9405C25.9799 32.0575 26.5538 32.0011 27.0765 31.7784C27.5991 31.5557 28.0473 31.1765 28.3648 30.6884C28.6823 30.2003 28.8549 29.625 28.8611 29.0347C28.8451 28.4834 28.6823 27.9478 28.391 27.4881C28.8748 27.2693 29.2858 26.9054 29.5721 26.4425C29.8584 25.9795 30.0072 25.4382 29.9997 24.8869ZM2.67936 1.18509H27.3204C27.731 1.18666 28.1244 1.3584 28.4142 1.66271C28.7041 1.96702 28.8668 2.37909 28.8668 2.80866V5.77138H1.11026V2.80866C1.11025 2.59395 1.15095 2.38136 1.23001 2.18321C1.30907 1.98506 1.42492 1.80529 1.57085 1.65429C1.71678 1.50329 1.8899 1.38408 2.08017 1.30354C2.27045 1.223 2.47411 1.18274 2.67936 1.18509ZM27.2184 30.279C27.06 30.4501 26.8703 30.5862 26.6606 30.6791C26.4509 30.7721 26.2254 30.82 25.9977 30.82C25.7699 30.82 25.5445 30.7721 25.3348 30.6791C25.1251 30.5862 24.9354 30.4501 24.777 30.279L21.3782 26.6941C21.3253 26.6392 21.2625 26.5958 21.1935 26.5663C21.1245 26.5368 21.0506 26.5218 20.976 26.5223C20.9015 26.5218 20.8276 26.5368 20.7586 26.5663C20.6895 26.5958 20.6268 26.6392 20.5738 26.6941L18.6139 28.7443C18.514 28.8494 18.3893 28.925 18.2525 28.9635C18.1156 29.002 17.9715 29.002 17.8347 28.9635C17.6979 28.925 17.5732 28.8494 17.4733 28.7443C17.3734 28.6392 17.3018 28.5084 17.2657 28.3651L14.6543 18.1852C14.618 18.0401 14.6186 17.8876 14.6561 17.7428C14.6936 17.598 14.7667 17.4661 14.8681 17.36C14.9695 17.254 15.0957 17.1775 15.2341 17.1383C15.3725 17.099 15.5183 17.0984 15.657 17.1364L25.3887 19.8384C25.5267 19.8746 25.6529 19.9484 25.7547 20.0522C25.8565 20.1561 25.9302 20.2863 25.9682 20.4297C26.0061 20.573 26.0071 20.7243 25.971 20.8682C25.9349 21.012 25.863 21.1433 25.7626 21.2486L23.8027 23.2988C23.7496 23.3539 23.7074 23.4195 23.6787 23.4917C23.6499 23.5639 23.6351 23.6413 23.6351 23.7196C23.6351 23.7978 23.6499 23.8752 23.6787 23.9474C23.7074 24.0196 23.7496 24.0852 23.8027 24.1403L27.2014 27.6955C27.365 27.8613 27.4951 28.0597 27.5839 28.2791C27.6728 28.4984 27.7185 28.7342 27.7185 28.9725C27.7185 29.2107 27.6728 29.4465 27.5839 29.6659C27.4951 29.8852 27.365 30.0837 27.2014 30.2494L27.2184 30.279ZM27.6149 26.463L24.9922 23.7018L26.55 22.0723C26.7914 21.8199 26.9649 21.5055 27.0533 21.1607C27.1416 20.8159 27.1415 20.4529 27.0531 20.1081C26.9647 19.7633 26.791 19.449 26.5495 19.1967C26.3081 18.9444 26.0074 18.7631 25.6776 18.6711L15.9459 15.9987C15.6157 15.9067 15.2683 15.907 14.9384 15.9997C14.6084 16.0924 14.3076 16.2742 14.066 16.5269C13.8245 16.7796 13.6507 17.0943 13.562 17.4394C13.4734 17.7846 13.4731 18.148 13.5611 18.4933L15.5946 26.5282H2.67936C2.47457 26.5274 2.27196 26.4843 2.08319 26.4012C1.89442 26.3182 1.72322 26.1969 1.57947 26.0443C1.43573 25.8917 1.32226 25.7109 1.24562 25.5123C1.16898 25.3136 1.13068 25.1011 1.13292 24.8869V6.96832H28.8895V24.8869C28.8892 25.2647 28.761 25.6303 28.5278 25.9188C28.2945 26.2072 27.9711 26.4001 27.6149 26.463Z" fill="black"/>
</svg>
