<svg width="12" height="12" viewBox="0 0 12 12" fill="none" xmlns="http://www.w3.org/2000/svg">
<path fill-rule="evenodd" clip-rule="evenodd" d="M8.97011 5.0299L9.50002 4.5C10.0523 3.94771 10.0523 3.05228 9.50002 2.5C8.94773 1.94771 8.0523 1.94771 7.50002 2.5L6.95753 3.04249C7.4188 3.88314 8.11726 4.57596 8.97011 5.0299ZM5.50209 4.49792L2.8564 7.14362C2.43134 7.56868 2.21881 7.78121 2.07907 8.04231C1.93934 8.3034 1.88039 8.59813 1.7625 9.18758L1.6471 9.76456C1.58058 10.0972 1.54732 10.2635 1.64193 10.3581C1.73654 10.4527 1.90284 10.4194 2.23545 10.3529L2.23545 10.3529L2.81243 10.2375L2.81244 10.2375C3.40189 10.1196 3.69661 10.0607 3.95771 9.92094C4.2188 9.78121 4.43132 9.56869 4.85636 9.14366L4.85638 9.14363L4.8564 9.14362L7.51082 6.48919C6.71004 5.96904 6.02669 5.29014 5.50209 4.49792Z" fill="#353535"/>
</svg>
