<svg width="14" height="14" viewBox="0 0 14 14" fill="none" xmlns="http://www.w3.org/2000/svg">
<path fill-rule="evenodd" clip-rule="evenodd" d="M10.3418 5.99128L11.0831 5.24999C11.7274 4.60566 11.7274 3.56099 11.0831 2.91666C10.4388 2.27233 9.3941 2.27233 8.74977 2.91666L7.99426 3.67217C8.53984 4.64746 9.35272 5.45389 10.3418 5.99128ZM6.53918 5.12725L3.18948 8.47695C2.76442 8.90201 2.55189 9.11454 2.41216 9.37563C2.27242 9.63673 2.21348 9.93146 2.09559 10.5209L1.89686 11.5146C1.83034 11.8472 1.79708 12.0135 1.89168 12.1081C1.98629 12.2027 2.1526 12.1694 2.48521 12.1029L3.47885 11.9042C4.06831 11.7863 4.36303 11.7273 4.62413 11.5876C4.88523 11.4479 5.09776 11.2353 5.52282 10.8103L8.88292 7.45018C7.94549 6.84721 7.14749 6.05447 6.53918 5.12725Z" fill="#25213B"/>
</svg>
