<svg width="24" height="32" viewBox="0 0 24 32" fill="none" xmlns="http://www.w3.org/2000/svg">
<path fill-rule="evenodd" clip-rule="evenodd" d="M4.36887 0.196869H14.9457L23.8963 9.53959V27.6829C23.8963 29.9552 22.0624 31.8006 19.7901 31.8006H4.36887C2.10816 31.8006 0.262695 29.9552 0.262695 27.6829V4.30304C0.262655 2.04233 2.10816 0.196869 4.36887 0.196869Z" fill="#00733B"/>
<path opacity="0.302" fill-rule="evenodd" clip-rule="evenodd" d="M14.9355 0.196869V9.45885H23.8976L14.9355 0.196869Z" fill="white"/>
<path d="M10.0919 23.2077H8.55789L7.5083 21.443L6.45867 23.2077H4.91309L6.73551 20.1396L5.13227 17.4752H6.67781L7.50826 18.8593L8.32717 17.4752H9.87275L8.28101 20.1511L10.0919 23.2077ZM10.634 23.2077V17.4752H12.0989V21.962H14.5903V23.2076H10.634V23.2077ZM17.0125 23.2769C16.4357 23.2769 15.9283 23.0923 15.49 22.7348C15.0632 22.3887 14.821 21.9505 14.7864 21.4314L16.0436 21.0623C16.0782 21.3391 16.1936 21.5814 16.3897 21.7659C16.5973 21.9505 16.8279 22.0427 17.0817 22.0427C17.2893 22.0427 17.4623 21.9966 17.6007 21.9043C17.7276 21.812 17.7968 21.6852 17.7968 21.5352C17.7968 21.4084 17.7391 21.3046 17.6353 21.2123C17.5315 21.1315 17.3931 21.0623 17.2316 21.0047C17.0701 20.947 16.8741 20.8893 16.678 20.8432C16.4704 20.7855 16.2627 20.7163 16.0667 20.6241C15.859 20.5433 15.6745 20.4395 15.513 20.3126C15.34 20.1973 15.2131 20.0243 15.1093 19.8051C15.0055 19.5975 14.9478 19.3437 14.9478 19.0554C14.9478 18.5825 15.1439 18.1903 15.5476 17.8789C15.9513 17.5559 16.4357 17.406 17.0009 17.406C17.5661 17.406 18.062 17.5444 18.4773 17.8097C18.8925 18.0865 19.1578 18.4441 19.2616 18.8824L17.9467 19.436C17.889 19.1938 17.7737 18.9977 17.6122 18.8478C17.4507 18.7094 17.2431 18.6286 17.0009 18.6286C16.8163 18.6286 16.6779 18.6748 16.5626 18.744C16.4588 18.8132 16.4127 18.917 16.4127 19.0439C16.4127 19.1593 16.4819 19.263 16.6203 19.3438C16.7587 19.413 16.9432 19.4706 17.1508 19.5053C17.3584 19.5399 17.5891 19.5975 17.8313 19.6783C18.0851 19.7706 18.3042 19.8628 18.5234 19.9897C18.731 20.1051 18.904 20.3011 19.0424 20.5549C19.1924 20.8202 19.2616 21.1316 19.2616 21.4892C19.2616 22.0197 19.054 22.4581 18.6387 22.781C18.2235 23.1039 17.6815 23.2769 17.0125 23.2769Z" fill="white"/>
</svg>
