<svg width="19" height="25" viewBox="0 0 19 25" fill="none" xmlns="http://www.w3.org/2000/svg">
<path fill-rule="evenodd" clip-rule="evenodd" d="M3.40051 0H11.7673L18.8476 7.39051V21.7427C18.8476 23.5402 17.3969 25 15.5994 25H3.40051C1.61219 25 0.152344 23.5402 0.152344 21.7427V3.24817C0.152312 1.45984 1.61219 0 3.40051 0Z" fill="#00733B"/>
<path opacity="0.302" fill-rule="evenodd" clip-rule="evenodd" d="M11.7582 0V7.32664H18.8476L11.7582 0Z" fill="white"/>
<path d="M7.92605 18.2026H6.71255L5.88228 16.8066L5.05197 18.2026H3.82935L5.27096 15.7756L4.00273 13.6679H5.22532L5.88224 14.7628L6.53004 13.6679H7.75266L6.49353 15.7847L7.92605 18.2026ZM8.35488 18.2026V13.6679H9.51363V17.2171H11.4844V18.2025H8.35488V18.2026ZM13.4005 18.2573C12.9443 18.2573 12.5428 18.1113 12.1961 17.8285C11.8585 17.5547 11.6669 17.208 11.6396 16.7975L12.6341 16.5055C12.6615 16.7245 12.7527 16.9161 12.9078 17.0621C13.0721 17.2081 13.2545 17.281 13.4553 17.281C13.6195 17.281 13.7564 17.2446 13.8658 17.1716C13.9662 17.0986 14.0209 16.9982 14.0209 16.8796C14.0209 16.7792 13.9753 16.6971 13.8932 16.6241C13.8111 16.5603 13.7016 16.5055 13.5738 16.4599C13.4461 16.4143 13.291 16.3686 13.1359 16.3322C12.9717 16.2865 12.8074 16.2318 12.6523 16.1588C12.4881 16.0949 12.3421 16.0128 12.2144 15.9125C12.0775 15.8212 11.9771 15.6844 11.895 15.511C11.8129 15.3468 11.7673 15.146 11.7673 14.9179C11.7673 14.5438 11.9224 14.2336 12.2417 13.9873C12.5611 13.7318 12.9443 13.6132 13.3913 13.6132C13.8384 13.6132 14.2307 13.7227 14.5592 13.9325C14.8877 14.1515 15.0975 14.4344 15.1797 14.7811L14.1395 15.219C14.0939 15.0274 14.0026 14.8723 13.8749 14.7537C13.7472 14.6442 13.5829 14.5804 13.3913 14.5804C13.2453 14.5804 13.1359 14.6168 13.0446 14.6716C12.9625 14.7263 12.926 14.8085 12.926 14.9088C12.926 15.0001 12.9808 15.0822 13.0902 15.146C13.1997 15.2008 13.3457 15.2464 13.5099 15.2738C13.6742 15.3012 13.8567 15.3468 14.0483 15.4107C14.249 15.4837 14.4223 15.5567 14.5957 15.657C14.7599 15.7483 14.8968 15.9034 15.0063 16.1041C15.1249 16.314 15.1796 16.5603 15.1796 16.8431C15.1796 17.2629 15.0154 17.6096 14.6869 17.865C14.3584 18.1205 13.9297 18.2573 13.4005 18.2573Z" fill="white"/>
</svg>
