<?xml version="1.0" encoding="utf-8"?>
<!-- Generator: Adobe Illustrator 26.0.1, SVG Export Plug-In . SVG Version: 6.00 Build 0)  -->
<svg version="1.1" id="Layer_1" xmlns="http://www.w3.org/2000/svg" xmlns:xlink="http://www.w3.org/1999/xlink" x="0px" y="0px"
	 viewBox="0 0 128 128" style="enable-background:new 0 0 128 128;" xml:space="preserve">
<style type="text/css">
	.st0{fill:#FFFFFF;}
	.st1{fill:#0250CC;}
	.st2{fill:#F47D20;}
</style>
<path class="st0" d="M64,128L64,128C28.7,128,0,99.3,0,64v0C0,28.7,28.7,0,64,0h0c35.3,0,64,28.7,64,64v0C128,99.3,99.3,128,64,128z
	"/>
<g>
	<path class="st1" d="M71.8,23.4c0.7-2.5,2-4.6,4.2-6c4.5-3,10.2-1.5,12.8,3.2c2.6,4.8,0.8,11-4.1,13.6c-5.2,2.7-11.5-0.2-12.9-6
		C71.5,26.6,71.5,25,71.8,23.4"/>
	<path class="st1" d="M91.8,10.3c0.2,0.4,0.4,0.7,0.5,1c3.2,6.7,5.2,13.6,5.4,21c0.2,5.1-0.5,10.1-2,15c-1.4,4.4-3.3,8.6-6,12.4
		c-4,5.5-9.1,9.6-15.5,11.9c-1.7,0.6-3.4,1-5.2,1.1c-0.3,0-0.5,0-1,0c0.3-0.3,0.5-0.5,0.7-0.8c2.2-2.4,4.1-5,5.7-7.9
		c2.3-4.4,3.6-9,3.3-14.1c-0.2-6-3-10.5-8.3-13.4c-0.3-0.1-0.5-0.3-0.9-0.5c0.4-0.1,0.7-0.3,0.9-0.3c1.5-0.4,3-0.2,4.5,0.3
		c2,0.7,3.7,1.9,5.4,3c1.2,0.8,2.5,1.6,3.8,2.4c0.8,0.5,1.7,0.8,2.7,1c1.1,0.1,2.1-0.2,2.9-0.9c0.7-0.6,1.2-1.4,1.6-2.2
		c0.7-1.5,1.2-3,1.5-4.6c0.8-4,1-8,0.9-12c-0.1-3.9-0.4-7.8-1-11.7c0-0.3,0-0.5-0.1-0.7C91.7,10.3,91.7,10.3,91.8,10.3"/>
	<path class="st1" d="M98.9,102.4c-2.8,3-6,5.7-9.5,7.9c-6.7,4.2-14.6,6.9-23.1,7.3c-10.1,0.5-19.7-2.2-27.6-7.3
		c-3.5-2.2-6.7-4.9-9.6-7.9C21.8,94.5,17,84,16.5,72.4c-1.2-26.2,19-48.5,45.2-49.8l1,20c-15.2,0.7-27,13.7-26.2,28.9
		s13.7,27,28.9,26.2C80.5,97,92.3,84,91.6,68.8l20-1C112.2,81.1,107.3,93.4,98.9,102.4z"/>
	<path class="st0" d="M98.9,102.4c-2.8,3-6,5.7-9.5,7.9H38.6c-3.5-2.2-6.7-4.9-9.6-7.9H98.9z"/>
	<g>
		<polygon class="st2" points="65.4,109.5 65.4,103.4 63.5,103.4 61.8,107.6 60.1,103.4 58.3,103.4 58.3,109.5 59.8,109.5 
			59.8,105.7 61.2,109.5 62.5,109.5 63.9,105.7 63.9,109.5 		"/>
		<path class="st2" d="M54.8,108.4l0.4,1.1h1.6l-2.3-6.1h-1.8l-2.3,6.1H52l0.4-1.1H54.8z M53.6,105l0.8,2.3h-1.6L53.6,105z"/>
		<path class="st2" d="M46,104.6c0.3,0,0.6,0.1,0.9,0.3c0.3,0.2,0.4,0.4,0.5,0.7h1.6c-0.1-0.7-0.5-1.2-1-1.7c-0.5-0.4-1.2-0.6-2-0.6
			c-0.6,0-1.2,0.1-1.6,0.4c-0.5,0.3-0.8,0.6-1.1,1.1c-0.3,0.5-0.4,1-0.4,1.6c0,0.6,0.1,1.2,0.4,1.6s0.6,0.8,1.1,1.1
			c0.5,0.3,1,0.4,1.6,0.4c0.8,0,1.5-0.2,2-0.6c0.5-0.4,0.9-1,1-1.7h-1.6c-0.1,0.3-0.3,0.5-0.5,0.7c-0.3,0.1-0.5,0.3-0.9,0.3
			c-0.4,0-0.8-0.1-1.1-0.5c-0.3-0.3-0.4-0.7-0.4-1.3c0-0.5,0.1-1,0.4-1.3C45.2,104.8,45.6,104.6,46,104.6z"/>
		<path class="st2" d="M73.7,103.3v3.6c0,0.6,0.1,1.1,0.3,1.5c0.2,0.4,0.5,0.7,0.9,0.9c0.4,0.2,0.8,0.3,1.4,0.3s1-0.1,1.4-0.3
			c0.4-0.2,0.7-0.5,1-0.9c0.2-0.4,0.4-0.9,0.4-1.5v-3.6h-1.5v3.6c0,0.4-0.1,0.7-0.3,0.9c-0.2,0.2-0.5,0.3-0.8,0.3s-0.6-0.1-0.8-0.3
			c-0.2-0.2-0.3-0.5-0.3-0.9v-3.6H73.7z"/>
		<path class="st2" d="M84.5,106.2c-0.3-0.1-0.6-0.3-1-0.4c-0.3-0.1-0.5-0.2-0.7-0.3s-0.3-0.1-0.4-0.3c-0.1-0.1-0.1-0.2-0.1-0.4
			c0-0.2,0.1-0.3,0.2-0.4c0.1-0.1,0.3-0.1,0.4-0.1c0.2,0,0.4,0.1,0.5,0.2c0.1,0.1,0.2,0.3,0.2,0.5h1.7c-0.1-0.5-0.3-1-0.7-1.4
			c-0.4-0.3-1-0.5-1.7-0.5c-0.4,0-0.8,0.1-1.2,0.2c-0.3,0.1-0.6,0.4-0.8,0.6c-0.2,0.3-0.3,0.6-0.3,1c0,0.4,0.1,0.7,0.3,1
			c0.2,0.3,0.4,0.4,0.7,0.5c0.3,0.1,0.6,0.3,1,0.4c0.3,0.1,0.5,0.2,0.7,0.3c0.1,0.1,0.3,0.1,0.4,0.3c0.1,0.1,0.1,0.2,0.1,0.4
			c0,0.2-0.1,0.3-0.2,0.4c-0.1,0.1-0.3,0.1-0.5,0.1s-0.4-0.1-0.5-0.2c-0.1-0.1-0.2-0.3-0.3-0.5h-1.6c0,0.6,0.3,1.1,0.8,1.4
			c0.5,0.3,1.1,0.5,1.8,0.5c0.5,0,0.9-0.1,1.2-0.3c0.3-0.1,0.6-0.4,0.8-0.7c0.2-0.3,0.3-0.6,0.3-0.9c0-0.4-0.1-0.7-0.3-1
			C85,106.5,84.8,106.3,84.5,106.2z"/>
		<path class="st2" d="M69.8,107.3c0.5,0,0.9-0.1,1.3-0.3c0.4-0.2,0.6-0.4,0.8-0.7s0.3-0.6,0.3-1c0-0.6-0.2-1.1-0.6-1.5
			c-0.4-0.4-1-0.5-1.7-0.5h-2.5v6.2h1.5v-2.2H69.8z M68.9,104.5h0.8c0.6,0,0.9,0.3,0.9,0.8c0,0.5-0.3,0.8-0.9,0.8h-0.8V104.5z"/>
	</g>
</g>
</svg>
