<svg width="25" height="25" viewBox="0 0 25 25" fill="none" xmlns="http://www.w3.org/2000/svg">
<path fill-rule="evenodd" clip-rule="evenodd" d="M1.17157 1.17158C0 2.34315 0 4.22877 0 8.00001V17C0 20.7712 0 22.6569 1.17157 23.8284C2.34315 25 4.22876 25 8 25H17C20.7712 25 22.6569 25 23.8284 23.8284C25 22.6569 25 20.7712 25 17V8.00001C25 4.9413 25 3.12299 24.3749 1.92001V18.75C24.1605 18.75 24.0533 18.75 23.9501 18.7447C23.033 18.6972 22.1603 18.3357 21.4783 17.7208C21.4015 17.6516 21.3257 17.5758 21.1741 17.4242L20.2345 16.4846C18.9922 15.2423 18.3711 14.6212 17.6041 14.5812C17.5347 14.5775 17.4652 14.5775 17.3957 14.5812C16.6288 14.6212 16.0076 15.2423 14.7653 16.4846L14.5888 16.6612L14.5888 16.6612C13.6424 17.6076 13.1692 18.0808 12.6481 17.9804C12.1271 17.8801 11.8635 17.265 11.3363 16.0348L11.0773 15.4304C10.0228 12.97 9.49556 11.7398 8.45351 11.5391C7.41146 11.3385 6.46506 12.2849 4.57224 14.1777L1.87492 16.875V0.648956C1.6132 0.790195 1.38098 0.962173 1.17157 1.17158Z" fill="#222222"/>
<path d="M8 1H17C18.9139 1 20.2487 1.00212 21.2558 1.13753C22.2342 1.26907 22.7523 1.50966 23.1213 1.87868C23.4903 2.2477 23.7309 2.76579 23.8625 3.74416C23.9979 4.75129 24 6.08611 24 8V12.5V17C24 18.9139 23.9979 20.2487 23.8625 21.2558C23.7309 22.2342 23.4903 22.7523 23.1213 23.1213C22.7523 23.4903 22.2342 23.7309 21.2558 23.8625C20.2487 23.9979 18.9139 24 17 24H8C6.08611 24 4.75129 23.9979 3.74416 23.8625C2.76579 23.7309 2.2477 23.4903 1.87868 23.1213C1.50966 22.7523 1.26907 22.2342 1.13753 21.2558C1.00212 20.2487 1 18.9139 1 17V8C1 6.08611 1.00212 4.75129 1.13753 3.74416C1.26907 2.76579 1.50966 2.2477 1.87868 1.87868C2.2477 1.50966 2.76579 1.26907 3.74416 1.13753C4.75129 1.00212 6.08611 1 8 1Z" stroke="#222222" stroke-width="2"/>
<circle cx="16.2501" cy="8.74998" r="2.5" fill="#222222"/>
</svg>
