<svg width="17" height="17" viewBox="0 0 17 17" fill="none" xmlns="http://www.w3.org/2000/svg">
<path fill-rule="evenodd" clip-rule="evenodd" d="M7.11302 5.05076C7.11302 5.05076 6.17011 5.04364 5.11456 5.03546C4.22649 5.02899 3.37177 5.37541 2.73912 5.99859C2.10624 6.62199 1.7472 7.47117 1.74028 8.35924C1.73999 8.39778 1.7397 8.43632 1.73941 8.47487C1.73294 9.36294 2.07914 10.2174 2.70255 10.8503C3.32573 11.483 4.17513 11.8422 5.0632 11.8492C6.11875 11.8569 7.06165 11.864 7.06165 11.864C7.33053 11.866 7.55012 11.6497 7.55214 11.3808C7.55417 11.1124 7.33786 10.8928 7.06921 10.8906C7.06921 10.8906 6.12608 10.8837 5.07054 10.8755C4.44056 10.8708 3.83816 10.6161 3.39599 10.1672C2.95382 9.71836 2.70831 9.11219 2.71306 8.48221L2.71393 8.36658C2.71868 7.7366 2.9733 7.1342 3.42218 6.69203C3.87107 6.24986 4.47725 6.00435 5.10723 6.0091C6.16278 6.01683 7.10591 6.02418 7.10591 6.02418C7.37456 6.02597 7.59415 5.80967 7.59617 5.54125C7.5982 5.27238 7.3819 5.05278 7.11302 5.05076ZM10.9968 7.99999L5.79342 7.961C5.52478 7.95874 5.30495 8.17527 5.30316 8.44392C5.3009 8.71257 5.51743 8.93238 5.78608 8.93418L10.9895 8.97364C11.2581 8.97544 11.4777 8.75913 11.48 8.49049C11.4818 8.22184 11.2655 8.00225 10.9968 7.99999ZM9.65819 11.8836C9.65819 11.8836 10.6073 11.891 11.6677 11.8989C12.5557 11.9054 13.4105 11.559 14.0431 10.9358C14.676 10.3124 15.035 9.46324 15.0419 8.57516C15.0422 8.53662 15.0425 8.49808 15.0428 8.45953C15.0493 7.57146 14.7031 6.71697 14.0797 6.08409C13.4565 5.45144 12.6071 5.09217 11.719 5.08525C10.6639 5.07752 9.72104 5.07043 9.72104 5.07043C9.45262 5.0684 9.2328 5.28493 9.23078 5.55335C9.22875 5.82177 9.44528 6.04158 9.7137 6.04361C9.7137 6.04361 10.6566 6.05071 11.7117 6.0589C12.3417 6.06365 12.9441 6.31827 13.3862 6.76715C13.8284 7.21604 14.0739 7.82221 14.0692 8.45219L14.0683 8.56782C14.0635 9.1978 13.8089 9.80021 13.36 10.2424C12.9112 10.6845 12.305 10.93 11.675 10.9253C10.6146 10.9173 9.66552 10.9104 9.66552 10.9104C9.39688 10.9081 9.17706 11.1246 9.17526 11.3933C9.173 11.6619 9.38954 11.8818 9.65819 11.8836Z" fill="#25213B"/>
</svg>
