<svg width="17" height="18" viewBox="0 0 17 18" fill="none" xmlns="http://www.w3.org/2000/svg">
<path d="M0 8.10641C0 4.33518 0 2.44956 1.17157 1.27799C2.34315 0.106415 4.22876 0.106415 8 0.106415H8.97344C12.7447 0.106415 14.6303 0.106415 15.8019 1.27799C16.9734 2.44956 16.9734 4.33518 16.9734 8.10641V9.10642C16.9734 12.8777 16.9734 14.7633 15.8019 15.9348C14.6303 17.1064 12.7447 17.1064 8.97344 17.1064H7.99999C4.22876 17.1064 2.34315 17.1064 1.17157 15.9348C0 14.7633 0 12.8777 0 9.10641V8.10641Z" fill="#7E869E" fill-opacity="0.25"/>
<path d="M7.04394 8.13419C7.04394 9.16279 6.21161 9.9953 5.18652 9.9953C4.16143 9.9953 3.3291 9.16279 3.3291 8.13419C3.3291 7.10559 4.16143 6.27308 5.18652 6.27308C6.21161 6.27308 7.04394 7.10559 7.04394 8.13419Z" stroke="#222222"/>
<path d="M7.07227 8.13419H11.7871M13.673 10.0231V8.28419C13.673 8.20135 13.6059 8.13419 13.523 8.13419H11.7871M11.7871 8.13419V10.0231" stroke="#222222" stroke-linecap="round"/>
</svg>
