<svg width="19" height="25" viewBox="0 0 19 25" fill="none" xmlns="http://www.w3.org/2000/svg">
<path fill-rule="evenodd" clip-rule="evenodd" d="M3.40598 0H11.7643L18.8483 7.38381V21.7454C18.8483 23.5445 17.3927 25 15.5999 25H3.40598C1.60688 25 0.151367 23.5445 0.151367 21.7454V3.25461C0.151336 1.45552 1.60685 0 3.40598 0Z" fill="#E5252A"/>
<path opacity="0.302" fill-rule="evenodd" clip-rule="evenodd" d="M11.7581 0V7.32759H18.8483L11.7581 0Z" fill="white"/>
<path d="M3.76831 18.6532V14.0867H5.7111C6.19211 14.0867 6.57318 14.2179 6.86053 14.4865C7.14788 14.7489 7.29157 15.105 7.29157 15.5485C7.29157 15.992 7.14788 16.3481 6.86053 16.6104C6.57318 16.8791 6.19211 17.0102 5.7111 17.0102H4.93648V18.6532H3.76831ZM4.93648 16.017H5.57991C5.75481 16.017 5.89225 15.9795 5.98597 15.8921C6.07966 15.8109 6.12966 15.6984 6.12966 15.5485C6.12966 15.3986 6.07969 15.2861 5.98597 15.2049C5.89228 15.1175 5.75484 15.08 5.57991 15.08H4.93648V16.017ZM7.77255 18.6532V14.0867H9.39049C9.70908 14.0867 10.0089 14.1304 10.29 14.2241C10.5711 14.3178 10.8273 14.449 11.0522 14.6302C11.2771 14.8051 11.4582 15.0425 11.5894 15.3423C11.7143 15.6422 11.7831 15.9858 11.7831 16.3731C11.7831 16.7541 11.7144 17.0977 11.5894 17.3975C11.4582 17.6974 11.2771 17.9348 11.0522 18.1097C10.8272 18.2908 10.5711 18.422 10.29 18.5157C10.0089 18.6094 9.70908 18.6532 9.39049 18.6532H7.77255ZM8.91574 17.6599H9.25306C9.43421 17.6599 9.60289 17.6412 9.75906 17.5975C9.90897 17.5537 10.0527 17.485 10.1901 17.3913C10.3213 17.2976 10.4275 17.1664 10.5024 16.9915C10.5774 16.8166 10.6149 16.6104 10.6149 16.3731C10.6149 16.1294 10.5774 15.9233 10.5024 15.7484C10.4275 15.5735 10.3213 15.4423 10.1901 15.3486C10.0527 15.2549 9.909 15.1862 9.75906 15.1424C9.60289 15.0987 9.43421 15.08 9.25306 15.08H8.91574V17.6599ZM12.3703 18.6532V14.0867H15.6187V15.08H13.5384V15.8108H15.2001V16.7978H13.5384V18.6532H12.3703Z" fill="white"/>
</svg>
