<svg width="25" height="25" viewBox="0 0 25 25" fill="none" xmlns="http://www.w3.org/2000/svg">
<path d="M6.01465 9.98409V0.372292H18.9849V9.98409" fill="#DBDBDB"/>
<path d="M6.01465 9.98409V7.4525H18.9849V9.98409" fill="#E0E0E0"/>
<path d="M19.0582 21.1479H22.5805C23.7117 21.1479 24.6285 20.2286 24.6285 19.0948V10.7962C24.6285 9.66243 23.7117 8.74312 22.5805 8.74312H2.41862C1.28793 8.74312 0.371094 9.66243 0.371094 10.7962V19.0948C0.371094 20.2286 1.28793 21.1479 2.41862 21.1479H5.9409" fill="#494F56"/>
<path d="M2.25228 19.0948V10.7962C2.25228 9.66243 3.16911 8.74312 4.29981 8.74312H2.41862C1.28793 8.74312 0.371094 9.66243 0.371094 10.7962V19.0948C0.371094 20.2286 1.28793 21.1479 2.41862 21.1479H4.29981C3.16911 21.1479 2.25228 20.2286 2.25228 19.0948Z" fill="#36393D"/>
<path d="M18.7724 18.4724H20.6185V14.5012H4.38086V18.4724H6.2269" fill="#36393D"/>
<path d="M19.4305 24.6276H5.56885L6.4641 16.2568H18.5352L19.4305 24.6276Z" fill="#DBDBDB"/>
<path d="M3.19289 12.8632C3.90375 12.8632 4.48002 12.2854 4.48002 11.5726C4.48002 10.8598 3.90375 10.282 3.19289 10.282C2.48203 10.282 1.90576 10.8598 1.90576 11.5726C1.90576 12.2854 2.48203 12.8632 3.19289 12.8632Z" fill="#40D39B"/>
<path d="M7.05422 12.8632C7.76508 12.8632 8.34135 12.2854 8.34135 11.5726C8.34135 10.8598 7.76508 10.282 7.05422 10.282C6.34336 10.282 5.76709 10.8598 5.76709 11.5726C5.76709 12.2854 6.34336 12.8632 7.05422 12.8632Z" fill="#FC6947"/>
<path d="M6.01484 7.95123C6.21994 7.95123 6.38613 7.78454 6.38613 7.57894V0.744585H18.6139V7.57899C18.6139 7.78459 18.78 7.95128 18.9851 7.95128C19.1902 7.95128 19.3564 7.78459 19.3564 7.57899V0.372293C19.3564 0.166688 19.1902 0 18.9851 0H6.01484C5.80974 0 5.64355 0.166688 5.64355 0.372293V7.57899C5.64355 7.78454 5.80974 7.95123 6.01484 7.95123Z" fill="black"/>
<path d="M18.9484 16.6291H19.4532C19.6583 16.6291 19.8245 16.4624 19.8245 16.2568C19.8245 16.0512 19.6583 15.8845 19.4532 15.8845H5.54609C5.34099 15.8845 5.1748 16.0512 5.1748 16.2568C5.1748 16.4624 5.34099 16.6291 5.54609 16.6291H6.05084L5.42703 22.4619C5.4052 22.6664 5.55273 22.8498 5.75659 22.8718C5.96164 22.8939 6.14347 22.7457 6.16535 22.5413L6.79763 16.6291H18.2016L19.0172 24.2554H5.98203L6.03248 23.784C6.05436 23.5796 5.90683 23.3961 5.70292 23.3742C5.49961 23.3523 5.31604 23.5002 5.29416 23.7046L5.19966 24.588C5.18837 24.693 5.22223 24.7979 5.29263 24.8765C5.36307 24.9551 5.46347 25 5.56881 25H19.4305C19.5358 25 19.6362 24.9551 19.7067 24.8765C19.7771 24.798 19.8109 24.6931 19.7997 24.588L18.9484 16.6291Z" fill="black"/>
<path d="M4.70337 20.7756H2.41876C1.49451 20.7756 0.742574 20.0217 0.742574 19.0948V10.7962C0.742574 9.86944 1.49451 9.11542 2.41876 9.11542H20.5693C20.7744 9.11542 20.9406 8.94873 20.9406 8.74313C20.9406 8.53752 20.7744 8.37083 20.5693 8.37083H2.41876C1.08505 8.37083 0 9.45887 0 10.7962V19.0948C0 20.4322 1.08505 21.5202 2.41876 21.5202H4.70332C4.90842 21.5202 5.0746 21.3535 5.0746 21.1479C5.0746 20.9423 4.90842 20.7756 4.70337 20.7756Z" fill="black"/>
<path d="M22.5806 8.37083H21.8069C21.6018 8.37083 21.4356 8.53752 21.4356 8.74313C21.4356 8.94873 21.6018 9.11542 21.8069 9.11542H22.5806C23.5052 9.11542 24.2574 9.86939 24.2574 10.7962V19.0948C24.2574 20.0216 23.5052 20.7756 22.5806 20.7756H20.2961C20.091 20.7756 19.9248 20.9423 19.9248 21.1479C19.9248 21.3535 20.091 21.5202 20.2961 21.5202H22.5806C23.9147 21.5202 25 20.4322 25 19.0948V10.7962C25 9.45887 23.9147 8.37083 22.5806 8.37083Z" fill="black"/>
<path d="M20.0104 18.1001C19.8053 18.1001 19.6391 18.2668 19.6391 18.4724C19.6391 18.678 19.8053 18.8447 20.0104 18.8447H20.6187C20.8238 18.8447 20.99 18.678 20.99 18.4724V14.5012C20.99 14.2956 20.8238 14.129 20.6187 14.129H4.38105C4.17595 14.129 4.00977 14.2956 4.00977 14.5012V18.4724C4.00977 18.678 4.17595 18.8447 4.38105 18.8447H4.98937C5.19447 18.8447 5.36066 18.678 5.36066 18.4724C5.36066 18.2668 5.19447 18.1001 4.98937 18.1001H4.75234V14.8735H20.2474V18.1001H20.0104Z" fill="black"/>
<path d="M4.8515 11.5726C4.8515 10.6557 4.10754 9.90968 3.19308 9.90968C2.27863 9.90968 1.53467 10.6557 1.53467 11.5726C1.53467 12.4895 2.27863 13.2355 3.19308 13.2355C4.10754 13.2355 4.8515 12.4895 4.8515 11.5726ZM3.19308 12.4909C2.68808 12.4909 2.27724 12.079 2.27724 11.5726C2.27724 11.0662 2.68808 10.6543 3.19308 10.6543C3.69808 10.6543 4.10893 11.0662 4.10893 11.5726C4.10893 12.079 3.69808 12.4909 3.19308 12.4909Z" fill="black"/>
<path d="M8.71283 11.5726C8.71283 10.6557 7.96887 9.90968 7.05441 9.90968C6.13996 9.90968 5.396 10.6557 5.396 11.5726C5.396 12.4895 6.13996 13.2355 7.05441 13.2355C7.96887 13.2355 8.71283 12.4895 8.71283 11.5726ZM6.13857 11.5726C6.13857 11.0662 6.54941 10.6543 7.05441 10.6543C7.55941 10.6543 7.97025 11.0662 7.97025 11.5726C7.97025 12.079 7.55941 12.4909 7.05441 12.4909C6.54941 12.4909 6.13857 12.079 6.13857 11.5726Z" fill="black"/>
<path d="M7.30176 22.4435C7.30176 22.6491 7.46795 22.8158 7.67304 22.8158H17.3265C17.5316 22.8158 17.6978 22.6491 17.6978 22.4435C17.6978 22.2379 17.5316 22.0712 17.3265 22.0712H7.67304C7.46795 22.0712 7.30176 22.2379 7.30176 22.4435Z" fill="black"/>
<path d="M7.53711 20.7558C7.53711 20.9614 7.7033 21.1281 7.9084 21.1281H17.0917C17.2968 21.1281 17.463 20.9614 17.463 20.7558C17.463 20.5502 17.2968 20.3835 17.0917 20.3835H7.9084C7.70335 20.3835 7.53711 20.5502 7.53711 20.7558Z" fill="black"/>
<path d="M16.8934 19.4403C17.0985 19.4403 17.2647 19.2736 17.2647 19.068C17.2647 18.8624 17.0985 18.6957 16.8934 18.6957H8.10615C7.90105 18.6957 7.73486 18.8624 7.73486 19.068C7.73486 19.2736 7.90105 19.4403 8.10615 19.4403H16.8934Z" fill="black"/>
</svg>
