<svg width="30" height="32" viewBox="0 0 30 32" fill="none" xmlns="http://www.w3.org/2000/svg">
<path d="M24.3951 6.97737L22.9688 5.45581L21.5424 6.97737L20.8795 6.2703L22.9688 4.04169L25.058 6.2703L24.3951 6.97737Z" fill="black"/>
<path d="M22.5 4.99876H23.4375V10.499H22.5V4.99876Z" fill="black"/>
<path d="M25.3125 16.9993H24.375V14.8491C27.9117 14.079 30.3273 10.5774 29.9643 6.7464C29.6015 2.91566 26.5784 0 22.9688 0C19.3591 0 16.336 2.91566 15.9732 6.7464C15.6102 10.5774 18.0258 14.079 21.5625 14.8491V16.9993H20.625V31H18.75V14.9992H14.0625V31H12.1875V18.9994H7.5V31H5.625V23.9996H0.9375V31H0V32H30V31H25.3125V16.9993ZM4.6875 31H1.875V24.9997H4.6875V31ZM11.25 31H8.4375V19.9995H11.25V31ZM17.8125 31H15V15.9993H17.8125V31ZM16.875 7.49888C16.875 4.02948 19.4291 1.17168 22.6778 1.00615C25.9264 0.84037 28.7244 3.42545 29.0348 6.87873C29.3449 10.3323 27.0582 13.4371 23.8392 13.9325L23.4375 13.994V16.9993H22.5V13.994L22.0983 13.9325C19.1064 13.4586 16.8874 10.7253 16.875 7.49888ZM24.375 31H21.5625V17.9994H24.375V31Z" fill="black"/>
<path d="M28.125 7.49888C28.125 4.46114 25.8165 1.99863 22.9688 1.99863C20.121 1.99863 17.8125 4.46114 17.8125 7.49888C17.8125 10.5366 20.121 12.9991 22.9688 12.9991C25.8151 12.9955 28.1216 10.5352 28.125 7.49888ZM18.75 7.49888C18.75 5.01341 20.6387 2.99867 22.9688 2.99867C25.2988 2.99867 27.1875 5.01341 27.1875 7.49888C27.1875 9.9841 25.2988 11.9991 22.9688 11.9991C20.6399 11.9962 18.7525 9.98312 18.75 7.49888Z" fill="black"/>
<path d="M6.74585 16.9993H10.0379L14.0625 12.7061V13.9992H15V10.999H12.1875V11.9991H13.3997L9.64967 15.9993H6.37918L0.150391 22.1324L0.78714 22.8665L6.74585 16.9993Z" fill="black"/>
<path d="M27.1875 16.9993H30V17.9994H27.1875V16.9993Z" fill="black"/>
<path d="M27.1875 18.9994H30V19.9995H27.1875V18.9994Z" fill="black"/>
<path d="M27.1875 20.9995H30V21.9995H27.1875V20.9995Z" fill="black"/>
<path d="M27.1875 22.9996H30V23.9996H27.1875V22.9996Z" fill="black"/>
<path d="M27.1875 24.9997H30V25.9997H27.1875V24.9997Z" fill="black"/>
<path d="M27.1875 26.9998H30V27.9998H27.1875V26.9998Z" fill="black"/>
<path d="M27.1875 28.9999H30V29.9999H27.1875V28.9999Z" fill="black"/>
</svg>
