<svg width="30" height="32" viewBox="0 0 30 32" fill="none" xmlns="http://www.w3.org/2000/svg">
<path d="M1 10.1333H0V8.00001C0.000744409 7.29301 0.264376 6.6152 0.733055 6.11527C1.20173 5.61535 1.83719 5.33414 2.5 5.33335H19.5V4.26668H18.5C18.4011 4.26669 18.3044 4.23541 18.2222 4.17681C18.14 4.1182 18.0759 4.03491 18.038 3.93745C18.0002 3.83999 17.9903 3.73276 18.0096 3.6293C18.0289 3.52584 18.0765 3.43081 18.1464 3.35622L21.1464 0.156219C21.1929 0.106692 21.248 0.0674044 21.3087 0.0406002C21.3693 0.013796 21.4343 0 21.5 0C21.5657 0 21.6307 0.013796 21.6913 0.0406002C21.752 0.0674044 21.8071 0.106692 21.8536 0.156219L24.8536 3.35622C24.9235 3.43081 24.9711 3.52584 24.9904 3.6293C25.0097 3.73276 24.9998 3.83999 24.962 3.93745C24.9241 4.03491 24.86 4.1182 24.7778 4.17681C24.6956 4.23541 24.5989 4.26669 24.5 4.26668H23.5V5.33335H25.5C26.1628 5.33414 26.7983 5.61535 27.2669 6.11527C27.7356 6.6152 27.9993 7.29301 28 8.00001V18.6667H27V8.00001C26.9995 7.57582 26.8414 7.16914 26.5601 6.86919C26.2789 6.56924 25.8977 6.40051 25.5 6.40002H23.5V16H22.5V3.73335C22.5 3.5919 22.5527 3.45625 22.6464 3.35623C22.7402 3.25621 22.8674 3.20002 23 3.20002H23.2929L21.5 1.28755L19.7071 3.20002H20C20.1326 3.20002 20.2598 3.25621 20.3536 3.35623C20.4473 3.45625 20.5 3.5919 20.5 3.73335V16.5333H19.5V6.40002H2.5C2.10232 6.40051 1.72106 6.56924 1.43985 6.86919C1.15865 7.16914 1.00046 7.57582 1 8.00001V10.1333ZM2.5 26.6667H10.8279L9.62794 30.9333H8.5V32H19.5V30.9333H18.3721L17.7289 28.6467L16.7711 28.9533L17.328 30.9333H10.6718L11.8717 26.6667H15.5V25.6H2.5C2.10232 25.5995 1.72106 25.4308 1.43985 25.1308C1.15865 24.8309 1.00046 24.4242 1 24V23.4667H15V22.4H1V11.2H0V24C0.000744409 24.707 0.264376 25.3848 0.733055 25.8847C1.20173 26.3847 1.83719 26.6659 2.5 26.6667ZM17.5 17.6V9.06668H15.5V21.3333H2.5V20.2667H4.5V16C4.5 15.8586 4.55268 15.7229 4.64645 15.6229C4.74021 15.5229 4.86739 15.4667 5 15.4667H8C8.13261 15.4667 8.25979 15.5229 8.35355 15.6229C8.44732 15.7229 8.5 15.8586 8.5 16V20.2667H9.5V12.2667C9.5 12.1252 9.55268 11.9896 9.64645 11.8896C9.74021 11.7895 9.86739 11.7333 10 11.7333H13C13.1326 11.7333 13.2598 11.7895 13.3536 11.8896C13.4473 11.9896 13.5 12.1252 13.5 12.2667V20.2667H14.5V8.53335C14.5 8.3919 14.5527 8.25624 14.6464 8.15622C14.7402 8.0562 14.8674 8.00001 15 8.00001H18C18.1326 8.00001 18.2598 8.0562 18.3536 8.15622C18.4473 8.25624 18.5 8.3919 18.5 8.53335V17.6H17.5ZM7.5 16.5333H5.5V20.2667H7.5V16.5333ZM12.5 12.8H10.5V20.2667H12.5V12.8ZM2.5 7.46668V8.53335H3.5V7.46668H2.5ZM5.5 7.46668H4.5V8.53335H5.5V7.46668ZM6.5 7.46668V8.53335H7.5V7.46668H6.5ZM29.5604 29.2689C29.8408 29.5695 29.9987 29.9759 30 30.4C30.0002 30.6102 29.9615 30.8183 29.8862 31.0125C29.8109 31.2067 29.7004 31.3832 29.5611 31.5318C29.4217 31.6804 29.2563 31.7983 29.0742 31.8786C28.8922 31.9589 28.697 32.0002 28.5 32C28.1029 31.9963 27.7227 31.8282 27.4396 31.5311L25.0462 28.9783C23.7874 29.7705 22.3008 30.0456 20.8653 29.7522C19.4298 29.4588 18.1439 28.617 17.2488 27.3846C16.3536 26.1521 15.9105 24.6137 16.0027 23.0578C16.0949 21.5018 16.7159 20.0352 17.7495 18.9328C18.783 17.8304 20.158 17.1679 21.6167 17.0696C23.0754 16.9712 24.5176 17.4438 25.673 18.3987C26.8284 19.3535 27.6176 20.7252 27.8927 22.2563C28.1678 23.7875 27.9098 25.3732 27.1672 26.716L29.5604 29.2689ZM27 23.4667C27 22.4118 26.7068 21.3807 26.1573 20.5036C25.6079 19.6266 24.827 18.943 23.9134 18.5393C22.9998 18.1357 21.9945 18.03 21.0245 18.2358C20.0546 18.4416 19.1637 18.9496 18.4645 19.6954C17.7652 20.4413 17.289 21.3916 17.0961 22.4262C16.9031 23.4608 17.0022 24.5331 17.3806 25.5077C17.759 26.4822 18.3999 27.3151 19.2221 27.9012C20.0444 28.4872 21.0111 28.8 22 28.8C23.3256 28.7984 24.5965 28.236 25.5339 27.2361C26.4712 26.2363 26.9985 24.8807 27 23.4667ZM28.8533 30.0232L26.5791 27.5973C26.3634 27.8689 26.127 28.121 25.8724 28.351L28.1467 30.7768C28.1927 30.8284 28.2478 30.8697 28.3089 30.8982C28.37 30.9267 28.4359 30.9418 28.5026 30.9427C28.5692 30.9437 28.6354 30.9303 28.6972 30.9035C28.759 30.8767 28.8151 30.837 28.8623 30.7867C28.9094 30.7364 28.9467 30.6765 28.9718 30.6106C28.9969 30.5447 29.0094 30.4741 29.0086 30.403C29.0077 30.3319 28.9935 30.2616 28.9668 30.1964C28.9401 30.1313 28.9014 30.0724 28.853 30.0235L28.8533 30.0232ZM26 23.4667C26 24.3105 25.7654 25.1355 25.3259 25.8371C24.8864 26.5388 24.2616 27.0856 23.5307 27.4086C22.7998 27.7315 21.9956 27.816 21.2196 27.6514C20.4437 27.4867 19.731 27.0804 19.1716 26.4837C18.6122 25.887 18.2312 25.1267 18.0769 24.2991C17.9225 23.4714 18.0017 22.6135 18.3045 21.8339C18.6072 21.0543 19.1199 20.3879 19.7777 19.9191C20.4355 19.4502 21.2089 19.2 22 19.2C23.0605 19.2013 24.0772 19.6512 24.8271 20.4511C25.577 21.251 25.9988 22.3355 26 23.4667ZM25 23.4667C25 22.8338 24.8241 22.2151 24.4944 21.6888C24.1648 21.1626 23.6962 20.7525 23.1481 20.5103C22.5999 20.2681 21.9967 20.2047 21.4147 20.3282C20.8328 20.4516 20.2982 20.7564 19.8787 21.2039C19.4591 21.6515 19.1734 22.2216 19.0576 22.8424C18.9419 23.4631 19.0013 24.1065 19.2284 24.6913C19.4554 25.276 19.8399 25.7758 20.3333 26.1274C20.8266 26.479 21.4067 26.6667 22 26.6667C22.7954 26.6657 23.5579 26.3283 24.1204 25.7284C24.6828 25.1285 24.9991 24.3151 25 23.4667ZM20 23.4667H21C21.0003 23.1839 21.1058 22.9128 21.2932 22.7128C21.4807 22.5128 21.7349 22.4003 22 22.4V21.3333C21.4697 21.334 20.9614 21.5589 20.5864 21.9589C20.2115 22.3588 20.0006 22.9011 20 23.4667ZM26.5 3.20002H27.5C27.4991 2.35161 27.1828 1.53822 26.6204 0.93831C26.0579 0.338397 25.2954 0.000954688 24.5 1.94549e-05V1.06669C25.0303 1.06732 25.5386 1.29229 25.9136 1.69223C26.2885 2.09217 26.4994 2.63442 26.5 3.20002Z" fill="black"/>
</svg>
