<svg width="17" height="14" viewBox="0 0 17 14" fill="none" xmlns="http://www.w3.org/2000/svg">
<path d="M12.7379 3.38756C12.4959 2.42036 11.9377 1.56171 11.152 0.94797C10.3663 0.33423 9.39805 0.000579666 8.40104 7.54614e-07C7.40402 -0.000578157 6.43539 0.331947 5.64896 0.944775C4.86252 1.5576 4.30336 2.4156 4.06027 3.38253C2.91362 3.49014 1.85248 4.03534 1.09729 4.90487C0.342098 5.7744 -0.0491062 6.90143 0.00493828 8.05186C0.0589828 9.20229 0.554122 10.2877 1.38751 11.0826C2.22089 11.8775 3.32846 12.3208 4.48016 12.3204H6.15969C6.30817 12.3204 6.45057 12.2615 6.55556 12.1565C6.66055 12.0515 6.71954 11.9091 6.71954 11.7606C6.71954 11.6121 6.66055 11.4697 6.55556 11.3647C6.45057 11.2597 6.30817 11.2008 6.15969 11.2008H4.48016C4.03904 11.202 3.60198 11.1164 3.19395 10.9488C2.78592 10.7812 2.4149 10.5348 2.10207 10.2238C1.47028 9.59573 1.11389 8.74237 1.11129 7.85149C1.10869 6.96061 1.4601 6.10518 2.08821 5.4734C2.71632 4.84161 3.56968 4.48522 4.46056 4.48262C4.60421 4.49343 4.74676 4.45051 4.86055 4.36216C4.97434 4.27382 5.05126 4.14636 5.07639 4.00451C5.19039 3.20509 5.58898 2.47363 6.19895 1.94447C6.80892 1.41531 7.58932 1.12398 8.39683 1.12398C9.20434 1.12398 9.98474 1.41531 10.5947 1.94447C11.2047 2.47363 11.6033 3.20509 11.7173 4.00451C11.7466 4.14144 11.8224 4.26395 11.932 4.35115C12.0416 4.43834 12.178 4.48481 12.318 4.48262C13.2089 4.48262 14.0633 4.83652 14.6932 5.46647C15.3232 6.09642 15.6771 6.95081 15.6771 7.84169C15.6771 8.73257 15.3232 9.58696 14.6932 10.2169C14.0633 10.8469 13.2089 11.2008 12.318 11.2008H10.6384C10.49 11.2008 10.3476 11.2597 10.2426 11.3647C10.1376 11.4697 10.0786 11.6121 10.0786 11.7606C10.0786 11.9091 10.1376 12.0515 10.2426 12.1565C10.3476 12.2615 10.49 12.3204 10.6384 12.3204H12.318C13.4613 12.3085 14.5567 11.8597 15.3797 11.0662C16.2028 10.2726 16.6912 9.1943 16.7449 8.05222C16.7986 6.91015 16.4135 5.79079 15.6685 4.92351C14.9235 4.05624 13.875 3.50672 12.7379 3.38756Z" fill="#353535"/>
<path d="M10.8025 8.23752C10.9081 8.3395 11.0495 8.39593 11.1963 8.39465C11.3431 8.39338 11.4835 8.3345 11.5873 8.2307C11.6911 8.1269 11.75 7.98648 11.7512 7.83969C11.7525 7.6929 11.6961 7.55148 11.5941 7.4459L8.79487 4.64667C8.68989 4.54172 8.54751 4.48276 8.39906 4.48276C8.25061 4.48276 8.10824 4.54172 8.00325 4.64667L5.20403 7.4459C5.10205 7.55148 5.04562 7.6929 5.0469 7.83969C5.04817 7.98648 5.10705 8.1269 5.21085 8.2307C5.31465 8.3345 5.45507 8.39338 5.60186 8.39465C5.74864 8.39593 5.89006 8.3395 5.99565 8.23752L7.83922 6.39395V13.4402C7.83922 13.5886 7.8982 13.731 8.00319 13.836C8.10819 13.941 8.25058 14 8.39906 14C8.54754 14 8.68994 13.941 8.79493 13.836C8.89993 13.731 8.95891 13.5886 8.95891 13.4402V6.39395L10.8025 8.23752Z" fill="#353535"/>
</svg>
