<svg width="27" height="27" viewBox="0 0 27 27" fill="none" xmlns="http://www.w3.org/2000/svg">
<g filter="url(#filter0_d_18_1067)">
<mask id="mask0_18_1067" style="mask-type:luminance" maskUnits="userSpaceOnUse" x="4" y="0" width="19" height="19">
<path d="M4 0H23V19H4V0Z" fill="white"/>
</mask>
<g mask="url(#mask0_18_1067)">
<path d="M22.2578 16.0312C22.2578 17.2609 21.2609 18.2578 20.0312 18.2578H6.96875C5.73906 18.2578 4.74219 17.2609 4.74219 16.0312V4.45312C4.74219 3.22343 5.73906 2.22656 6.96875 2.22656H20.0312C21.2609 2.22656 22.2578 3.22343 22.2578 4.45312V12.3203" stroke="black" stroke-width="1.2" stroke-miterlimit="10" stroke-linecap="round" stroke-linejoin="round"/>
<path d="M8.63867 0.742187V3.71094" stroke="black" stroke-width="1.2" stroke-miterlimit="10" stroke-linecap="round" stroke-linejoin="round"/>
<path d="M18.3242 3.71094V0.742187" stroke="black" stroke-width="1.2" stroke-miterlimit="10" stroke-linecap="round" stroke-linejoin="round"/>
<path d="M13.4629 0.742187V3.71094" stroke="black" stroke-width="1.2" stroke-miterlimit="10" stroke-linecap="round" stroke-linejoin="round"/>
<path d="M11.3105 9.68555H12.127" stroke="black" stroke-width="1.2" stroke-miterlimit="10" stroke-linecap="round"/>
<path d="M7.75098 12.5059H8.56738" stroke="black" stroke-width="1.2" stroke-miterlimit="10" stroke-linecap="round"/>
<path d="M7.75098 9.68555H8.56738" stroke="black" stroke-width="1.2" stroke-miterlimit="10" stroke-linecap="round"/>
<path d="M14.873 12.5059H15.6895" stroke="black" stroke-width="1.2" stroke-miterlimit="10" stroke-linecap="round"/>
<path d="M14.873 9.68555H15.6895" stroke="black" stroke-width="1.2" stroke-miterlimit="10" stroke-linecap="round"/>
<path d="M11.3105 12.5059H12.127" stroke="black" stroke-width="1.2" stroke-miterlimit="10" stroke-linecap="round"/>
<path d="M7.75098 15.3262H8.56738" stroke="black" stroke-width="1.2" stroke-miterlimit="10" stroke-linecap="round"/>
<path d="M14.873 15.3262H15.6895" stroke="black" stroke-width="1.2" stroke-miterlimit="10" stroke-linecap="round"/>
<path d="M11.3105 15.3262H12.127" stroke="black" stroke-width="1.2" stroke-miterlimit="10" stroke-linecap="round"/>
<path d="M18.4355 12.5059H19.252" stroke="black" stroke-width="1.2" stroke-miterlimit="10" stroke-linecap="round"/>
<path d="M18.4355 9.68555H19.252" stroke="black" stroke-width="1.2" stroke-miterlimit="10" stroke-linecap="round"/>
<path d="M4.74219 6.67969H22.2578" stroke="black" stroke-width="1.2" stroke-miterlimit="10" stroke-linecap="round" stroke-linejoin="round"/>
</g>
</g>
<defs>
<filter id="filter0_d_18_1067" x="0.14209" y="0.142181" width="26.7158" height="26.7156" filterUnits="userSpaceOnUse" color-interpolation-filters="sRGB">
<feFlood flood-opacity="0" result="BackgroundImageFix"/>
<feColorMatrix in="SourceAlpha" type="matrix" values="0 0 0 0 0 0 0 0 0 0 0 0 0 0 0 0 0 0 127 0" result="hardAlpha"/>
<feOffset dy="4"/>
<feGaussianBlur stdDeviation="2"/>
<feComposite in2="hardAlpha" operator="out"/>
<feColorMatrix type="matrix" values="0 0 0 0 0 0 0 0 0 0 0 0 0 0 0 0 0 0 0.25 0"/>
<feBlend mode="normal" in2="BackgroundImageFix" result="effect1_dropShadow_18_1067"/>
<feBlend mode="normal" in="SourceGraphic" in2="effect1_dropShadow_18_1067" result="shape"/>
</filter>
</defs>
</svg>
