<svg width="13" height="14" viewBox="0 0 13 14" fill="none" xmlns="http://www.w3.org/2000/svg">
<path d="M11.4844 1.64063H9.02344V1.23047C9.02344 0.551961 8.47148 0 7.79297 0H4.51172C3.83321 0 3.28125 0.551961 3.28125 1.23047V1.64063H0.820313C0.367254 1.64063 0 2.00788 0 2.46094C0 2.91394 0.367254 3.28125 0.820313 3.28125C4.59282 3.28125 7.712 3.28125 11.4844 3.28125C11.9374 3.28125 12.3047 2.91394 12.3047 2.46094C12.3047 2.00788 11.9374 1.64063 11.4844 1.64063ZM8.20313 1.64063H4.10156V1.23047C4.10156 1.00417 4.28542 0.820313 4.51172 0.820313H7.79297C8.01927 0.820313 8.20313 1.00417 8.20313 1.23047V1.64063Z" fill="#353535"/>
<path d="M0.853271 4.10156L1.57977 12.8717C1.63183 13.5041 2.17056 14 2.80542 14H9.49931C10.1342 14 10.6729 13.5041 10.725 12.8717L11.4514 4.10156H0.853271ZM4.10119 12.3594C3.88649 12.3594 3.70585 12.1924 3.69224 11.9748L3.28208 5.35765C3.26805 5.13136 3.43988 4.9367 3.6658 4.92267C3.9001 4.90623 4.08637 5.08009 4.10078 5.30638L4.51094 11.9236C4.52546 12.1579 4.34004 12.3594 4.10119 12.3594ZM6.56251 11.9492C6.56251 12.1759 6.37906 12.3594 6.15235 12.3594C5.92565 12.3594 5.7422 12.1759 5.7422 11.9492V5.33203C5.7422 5.10532 5.92565 4.92188 6.15235 4.92188C6.37906 4.92188 6.56251 5.10532 6.56251 5.33203V11.9492ZM9.02263 5.35768L8.61247 11.9749C8.59899 12.1902 8.41953 12.3696 8.17749 12.3586C7.95157 12.3446 7.77974 12.1499 7.79377 11.9236L8.20393 5.30641C8.21796 5.08011 8.41623 4.91548 8.63891 4.9227C8.86483 4.93672 9.03666 5.13138 9.02263 5.35768Z" fill="#353535"/>
</svg>
