<svg width="18" height="12" viewBox="0 0 18 12" fill="none" xmlns="http://www.w3.org/2000/svg">
<path d="M17.8856 5.37772C17.7248 5.15809 13.8934 0 8.99992 0C4.10647 0 0.274852 5.15809 0.114223 5.37751C-0.0380743 5.58587 -0.0380743 5.86847 0.114223 6.07683C0.274852 6.29646 4.10647 11.4545 8.99992 11.4545C13.8934 11.4545 17.7248 6.29642 17.8856 6.077C18.0381 5.86868 18.0381 5.58587 17.8856 5.37772ZM8.99992 10.2696C5.39538 10.2696 2.27346 6.84607 1.3493 5.72687C2.27226 4.60668 5.38764 1.18495 8.99992 1.18495C12.6043 1.18495 15.726 4.60788 16.6505 5.72768C15.7276 6.84783 12.6122 10.2696 8.99992 10.2696Z" fill="#02735C"/>
<path d="M9.0004 2.17247C7.0372 2.17247 5.43994 3.76722 5.43994 5.72735C5.43994 7.68747 7.0372 9.28222 9.0004 9.28222C10.9636 9.28222 12.5609 7.68747 12.5609 5.72735C12.5609 3.76722 10.9636 2.17247 9.0004 2.17247ZM9.0004 8.09724C7.69153 8.09724 6.62678 7.03413 6.62678 5.72735C6.62678 4.42056 7.69156 3.35745 9.0004 3.35745C10.3092 3.35745 11.374 4.42056 11.374 5.72735C11.374 7.03413 10.3093 8.09724 9.0004 8.09724Z" fill="#02735C"/>
</svg>
