<svg width="15" height="15" viewBox="0 0 15 15" fill="none" xmlns="http://www.w3.org/2000/svg">
<path d="M10.7103 4.29052C10.6623 4.24243 10.6053 4.20428 10.5425 4.17825C10.4797 4.15222 10.4124 4.13882 10.3444 4.13882C10.2764 4.13882 10.2091 4.15222 10.1463 4.17825C10.0835 4.20428 10.0265 4.24243 9.97844 4.29052L7.50086 6.7707L5.02068 4.29052C4.92363 4.19347 4.79199 4.13894 4.65474 4.13894C4.51748 4.13894 4.38584 4.19347 4.28879 4.29052C4.19173 4.38758 4.13721 4.51921 4.13721 4.65647C4.13721 4.79373 4.19173 4.92537 4.28879 5.02242L6.76896 7.50001L4.28879 9.98018C4.19173 10.0772 4.13721 10.2089 4.13721 10.3461C4.13721 10.4834 4.19173 10.615 4.28879 10.7121C4.38584 10.8091 4.51748 10.8637 4.65474 10.8637C4.79199 10.8637 4.92363 10.8091 5.02068 10.7121L7.50086 8.2319L9.98103 10.7121C10.0781 10.8091 10.2097 10.8637 10.347 10.8637C10.4842 10.8637 10.6159 10.8091 10.7129 10.7121C10.81 10.615 10.8645 10.4834 10.8645 10.3461C10.8645 10.2089 10.81 10.0772 10.7129 9.98018L8.23275 7.50001L10.7129 5.01983C10.8089 4.92258 10.8625 4.79129 10.862 4.65465C10.8616 4.518 10.807 4.38709 10.7103 4.29052Z" fill="#E5252A"/>
<path d="M7.5 0C6.01664 0 4.56659 0.439867 3.33323 1.26398C2.09986 2.08809 1.13856 3.25943 0.570907 4.62987C0.00324967 6.00032 -0.145275 7.50832 0.144114 8.96318C0.433503 10.418 1.14781 11.7544 2.1967 12.8033C3.2456 13.8522 4.58197 14.5665 6.03683 14.8559C7.49168 15.1453 8.99968 14.9968 10.3701 14.4291C11.7406 13.8614 12.9119 12.9001 13.736 11.6668C14.5601 10.4334 15 8.98336 15 7.5C15 5.51088 14.2098 3.60322 12.8033 2.1967C11.3968 0.790176 9.48913 0 7.5 0ZM7.5 13.9655C6.22124 13.9655 4.9712 13.5863 3.90795 12.8759C2.84471 12.1654 2.016 11.1557 1.52664 9.97424C1.03728 8.79283 0.909246 7.49283 1.15872 6.23864C1.40819 4.98445 2.02397 3.83241 2.92819 2.92819C3.83241 2.02397 4.98446 1.40819 6.23864 1.15872C7.49283 0.909242 8.79283 1.03728 9.97425 1.52664C11.1557 2.016 12.1654 2.8447 12.8759 3.90795C13.5863 4.9712 13.9655 6.22124 13.9655 7.5C13.9655 8.34906 13.7983 9.18981 13.4734 9.97424C13.1484 10.7587 12.6722 11.4714 12.0718 12.0718C11.4714 12.6722 10.7587 13.1484 9.97425 13.4734C9.18982 13.7983 8.34907 13.9655 7.5 13.9655Z" fill="#E5252A"/>
</svg>
