<svg width="14" height="14" viewBox="0 0 14 14" fill="none" xmlns="http://www.w3.org/2000/svg">
<path fill-rule="evenodd" clip-rule="evenodd" d="M10.3421 5.99128L11.0833 5.24999C11.7277 4.60566 11.7277 3.56099 11.0833 2.91666C10.439 2.27233 9.39435 2.27233 8.75002 2.91666L7.9945 3.67217C8.54008 4.64746 9.35296 5.45389 10.3421 5.99128ZM6.53942 5.12726L3.18973 8.47695C2.76467 8.90201 2.55214 9.11454 2.4124 9.37563C2.27267 9.63673 2.21372 9.93146 2.09583 10.5209L1.8971 11.5146C1.83058 11.8472 1.79732 12.0135 1.89193 12.1081C1.98654 12.2027 2.15284 12.1694 2.48545 12.1029L3.4791 11.9042C4.06855 11.7863 4.36328 11.7273 4.62437 11.5876C4.88547 11.4479 5.098 11.2353 5.52306 10.8103L8.88316 7.45018C7.94574 6.84721 7.14773 6.05447 6.53942 5.12726Z" fill="#353535"/>
</svg>
