<svg width="14" height="18" viewBox="0 0 14 18" fill="none" xmlns="http://www.w3.org/2000/svg">
<path fill-rule="evenodd" clip-rule="evenodd" d="M2.33868 0H8.36276L13.4606 5.32117V15.6547C13.4606 16.9489 12.4161 18 11.1219 18H2.33868C1.05109 18 3.69061e-10 16.9489 3.69061e-10 15.6547V2.33868C-2.27426e-05 1.05109 1.05109 0 2.33868 0Z" fill="#00733B"/>
<path opacity="0.302" fill-rule="evenodd" clip-rule="evenodd" d="M8.35498 0V5.27518H13.4594L8.35498 0Z" fill="white"/>
<path d="M5.5966 13.1058H4.72288L4.12508 12.1007L3.52726 13.1058H2.64697L3.68494 11.3584L2.77181 9.84086H3.65207L4.12506 10.6292L4.59147 9.84086H5.47176L4.56518 11.365L5.5966 13.1058ZM5.90536 13.1058V9.84086H6.73966V12.3963H8.15864V13.1058H5.90536V13.1058ZM9.5382 13.1453C9.20972 13.1453 8.92068 13.0401 8.67106 12.8365C8.42798 12.6394 8.29005 12.3898 8.27033 12.0942L8.98639 11.884C9.00611 12.0416 9.07179 12.1796 9.18348 12.2847C9.30172 12.3898 9.43311 12.4423 9.57764 12.4423C9.69588 12.4423 9.79442 12.4161 9.87325 12.3635C9.9455 12.311 9.98492 12.2387 9.98492 12.1533C9.98492 12.081 9.95208 12.0219 9.89295 11.9694C9.83381 11.9234 9.75499 11.884 9.66301 11.8511C9.57104 11.8183 9.45937 11.7854 9.34768 11.7591C9.22944 11.7263 9.11118 11.6869 8.99951 11.6343C8.88127 11.5883 8.77615 11.5292 8.68418 11.457C8.58564 11.3912 8.51338 11.2927 8.45425 11.1679C8.39512 11.0497 8.36228 10.9051 8.36228 10.7409C8.36228 10.4715 8.47394 10.2482 8.70388 10.0708C8.93381 9.88687 9.20972 9.80147 9.53161 9.80147C9.85351 9.80147 10.136 9.8803 10.3725 10.0314C10.609 10.1891 10.7601 10.3927 10.8192 10.6423L10.0703 10.9577C10.0375 10.8197 9.97175 10.7081 9.87978 10.6227C9.7878 10.5438 9.66956 10.4978 9.53161 10.4978C9.42649 10.4978 9.34766 10.5241 9.28198 10.5635C9.22285 10.603 9.19658 10.6621 9.19658 10.7343C9.19658 10.8 9.23599 10.8592 9.31482 10.9051C9.39365 10.9446 9.49877 10.9774 9.61701 10.9971C9.73525 11.0168 9.86663 11.0497 10.0046 11.0957C10.1491 11.1482 10.2739 11.2008 10.3987 11.273C10.517 11.3387 10.6155 11.4504 10.6944 11.5949C10.7798 11.746 10.8192 11.9234 10.8192 12.1271C10.8192 12.4292 10.7009 12.6789 10.4644 12.8628C10.2279 13.0467 9.91924 13.1453 9.5382 13.1453Z" fill="white"/>
</svg>
