<svg width="15" height="19" viewBox="0 0 15 19" fill="none" xmlns="http://www.w3.org/2000/svg">
<path fill-rule="evenodd" clip-rule="evenodd" d="M2.4735 0H8.82583L14.2096 5.6117V16.5265C14.2096 17.8938 13.1034 19 11.7409 19H2.4735C1.10619 19 3.90731e-10 17.8938 3.90731e-10 16.5265V2.4735C-2.40061e-05 1.10619 1.10617 0 2.4735 0Z" fill="#E5252A"/>
<path opacity="0.302" fill-rule="evenodd" clip-rule="evenodd" d="M8.82031 0V5.56897H14.2089L8.82031 0Z" fill="white"/>
<path d="M2.74854 14.1764V10.7059H4.22505C4.59062 10.7059 4.88024 10.8056 5.09862 11.0098C5.31701 11.2091 5.42621 11.4798 5.42621 11.8168C5.42621 12.1539 5.31701 12.4245 5.09862 12.6239C4.88024 12.8281 4.59062 12.9278 4.22505 12.9278H3.63634V14.1764H2.74854ZM3.63634 12.1729H4.12535C4.25828 12.1729 4.36273 12.1444 4.43396 12.078C4.50516 12.0163 4.54316 11.9308 4.54316 11.8169C4.54316 11.7029 4.50518 11.6175 4.43396 11.5558C4.36275 11.4893 4.2583 11.4608 4.12535 11.4608H3.63634V12.1729ZM5.79176 14.1764V10.7059H7.02139C7.26352 10.7059 7.49142 10.7391 7.70505 10.8104C7.91868 10.8816 8.11335 10.9813 8.28425 11.119C8.45518 11.2519 8.59286 11.4323 8.69256 11.6602C8.7875 11.8881 8.83974 12.1492 8.83974 12.4435C8.83974 12.7331 8.78753 12.9943 8.69256 13.2221C8.59286 13.45 8.45518 13.6304 8.28425 13.7634C8.11333 13.901 7.91868 14.0007 7.70505 14.072C7.49142 14.1432 7.26352 14.1764 7.02139 14.1764H5.79176ZM6.66058 13.4216H6.91694C7.05462 13.4216 7.18281 13.4073 7.3015 13.3741C7.41544 13.3408 7.52464 13.2886 7.62909 13.2174C7.72879 13.1462 7.8095 13.0465 7.86647 12.9136C7.92344 12.7806 7.95193 12.6239 7.95193 12.4435C7.95193 12.2584 7.92344 12.1017 7.86647 11.9688C7.8095 11.8359 7.72879 11.7362 7.62909 11.6649C7.52464 11.5937 7.41546 11.5415 7.3015 11.5083C7.18281 11.475 7.05462 11.4608 6.91694 11.4608H6.66058V13.4216ZM9.28602 14.1764V10.7059H11.7548V11.4608H10.1738V12.0162H11.4367V12.7664H10.1738V14.1764H9.28602Z" fill="white"/>
</svg>
