<svg width="38" height="37" viewBox="0 0 38 37" fill="none" xmlns="http://www.w3.org/2000/svg">
<rect width="37.925" height="37" rx="5" fill="#02735C"/>
<path d="M24.5041 13.5527C24.1968 12.3242 23.4878 11.2336 22.4898 10.4541C21.4919 9.67452 20.262 9.25074 18.9957 9.25C17.7293 9.24927 16.499 9.67163 15.5001 10.45C14.5012 11.2284 13.791 12.3182 13.4822 13.5463C12.0258 13.683 10.678 14.3755 9.71875 15.48C8.75953 16.5844 8.26264 18.0159 8.33128 19.4771C8.39993 20.9384 9.02883 22.317 10.0874 23.3266C11.1459 24.3363 12.5527 24.8994 14.0155 24.8989H16.1488C16.3374 24.8989 16.5183 24.824 16.6516 24.6907C16.785 24.5573 16.8599 24.3764 16.8599 24.1878C16.8599 23.9992 16.785 23.8184 16.6516 23.685C16.5183 23.5517 16.3374 23.4767 16.1488 23.4767H14.0155C13.4552 23.4784 12.9001 23.3696 12.3818 23.1567C11.8636 22.9438 11.3923 22.6309 10.995 22.2359C10.1925 21.4381 9.73983 20.3542 9.73653 19.2226C9.73323 18.0911 10.1796 17.0046 10.9774 16.2021C11.7752 15.3996 12.8591 14.9469 13.9906 14.9436C14.1731 14.9574 14.3542 14.9028 14.4987 14.7906C14.6432 14.6784 14.7409 14.5165 14.7728 14.3364C14.9176 13.321 15.4239 12.3919 16.1987 11.7198C16.9734 11.0477 17.9647 10.6776 18.9903 10.6776C20.016 10.6776 21.0072 11.0477 21.782 11.7198C22.5567 12.3919 23.063 13.321 23.2078 14.3364C23.245 14.5103 23.3414 14.6659 23.4806 14.7766C23.6197 14.8874 23.793 14.9464 23.9708 14.9436C25.1024 14.9436 26.1876 15.3932 26.9877 16.1933C27.7878 16.9934 28.2374 18.0786 28.2374 19.2102C28.2374 20.3418 27.7878 21.427 26.9877 22.2271C26.1876 23.0272 25.1024 23.4767 23.9708 23.4767H21.8375C21.6489 23.4767 21.4681 23.5517 21.3347 23.685C21.2014 23.8184 21.1264 23.9992 21.1264 24.1878C21.1264 24.3764 21.2014 24.5573 21.3347 24.6907C21.4681 24.824 21.6489 24.8989 21.8375 24.8989H23.9708C25.4229 24.8837 26.8143 24.3137 27.8597 23.3058C28.9052 22.2978 29.5255 20.9282 29.5937 19.4776C29.6619 18.027 29.1727 16.6052 28.2265 15.5036C27.2802 14.4021 25.9484 13.7041 24.5041 13.5527Z" fill="white"/>
<path d="M22.0459 19.7129C22.18 19.8425 22.3596 19.9141 22.5461 19.9125C22.7325 19.9109 22.9109 19.8361 23.0427 19.7043C23.1745 19.5724 23.2493 19.3941 23.2509 19.2076C23.2526 19.0212 23.1809 18.8416 23.0514 18.7074L19.4959 15.152C19.3626 15.0187 19.1817 14.9438 18.9932 14.9438C18.8046 14.9438 18.6238 15.0187 18.4904 15.152L14.935 18.7074C14.8054 18.8416 14.7338 19.0212 14.7354 19.2076C14.737 19.3941 14.8118 19.5724 14.9436 19.7043C15.0755 19.8361 15.2538 19.9109 15.4403 19.9125C15.6267 19.9141 15.8063 19.8425 15.9404 19.7129L18.2821 17.3713V26.3211C18.2821 26.5097 18.357 26.6906 18.4903 26.8239C18.6237 26.9573 18.8046 27.0322 18.9932 27.0322C19.1818 27.0322 19.3626 26.9573 19.496 26.8239C19.6293 26.6906 19.7043 26.5097 19.7043 26.3211V17.3713L22.0459 19.7129Z" fill="white"/>
</svg>
